<mxfile host="Electron" modified="2023-12-14T06:30:27.294Z" agent="Mozilla/5.0 (X11; Linux x86_64) AppleWebKit/537.36 (KHTML, like Gecko) draw.io/22.1.2 Chrome/114.0.5735.289 Electron/25.9.4 Safari/537.36" etag="reG0rjFj0JmMPt-SwPGo" version="22.1.2" type="device">
  <diagram id="C5RBs43oDa-KdzZeNtuy" name="Page-1">
    <mxGraphModel dx="1434" dy="870" grid="1" gridSize="10" guides="1" tooltips="1" connect="1" arrows="1" fold="1" page="1" pageScale="1" pageWidth="827" pageHeight="1169" math="0" shadow="0">
      <root>
        <mxCell id="WIyWlLk6GJQsqaUBKTNV-0" />
        <mxCell id="WIyWlLk6GJQsqaUBKTNV-1" parent="WIyWlLk6GJQsqaUBKTNV-0" />
        <mxCell id="GfsLyNKy6Gx6KUHtyKdF-7" value="是双引号吗？" style="rhombus;whiteSpace=wrap;html=1;shadow=0;fontFamily=Helvetica;fontSize=12;align=center;strokeWidth=1;spacing=6;spacingTop=-4;fillColor=#ffe6cc;strokeColor=#d79b00;" parent="WIyWlLk6GJQsqaUBKTNV-1" vertex="1">
          <mxGeometry x="216.25" y="379" width="100" height="60" as="geometry" />
        </mxCell>
        <mxCell id="GfsLyNKy6Gx6KUHtyKdF-9" value="是逗号吗？" style="rhombus;whiteSpace=wrap;html=1;shadow=0;fontFamily=Helvetica;fontSize=12;align=center;strokeWidth=1;spacing=6;spacingTop=-4;fillColor=#ffe6cc;strokeColor=#d79b00;" parent="WIyWlLk6GJQsqaUBKTNV-1" vertex="1">
          <mxGeometry x="216.25" y="474" width="100" height="60" as="geometry" />
        </mxCell>
        <mxCell id="GfsLyNKy6Gx6KUHtyKdF-12" value="双引号计数&lt;br&gt;加一" style="rounded=1;whiteSpace=wrap;html=1;absoluteArcSize=1;arcSize=14;strokeWidth=2;fillColor=#fff2cc;strokeColor=#d6b656;" parent="WIyWlLk6GJQsqaUBKTNV-1" vertex="1">
          <mxGeometry x="82.51" y="389" width="80" height="40" as="geometry" />
        </mxCell>
        <mxCell id="GfsLyNKy6Gx6KUHtyKdF-29" value="双引号数量&lt;br&gt;是偶数吗？" style="rhombus;whiteSpace=wrap;html=1;shadow=0;fontFamily=Helvetica;fontSize=12;align=center;strokeWidth=1;spacing=6;spacingTop=-4;fillColor=#ffe6cc;strokeColor=#d79b00;" parent="WIyWlLk6GJQsqaUBKTNV-1" vertex="1">
          <mxGeometry x="216.88" y="660" width="100" height="60" as="geometry" />
        </mxCell>
        <mxCell id="GfsLyNKy6Gx6KUHtyKdF-49" value="" style="endArrow=classic;html=1;rounded=0;exitX=0.5;exitY=1;exitDx=0;exitDy=0;entryX=0.5;entryY=0;entryDx=0;entryDy=0;" parent="WIyWlLk6GJQsqaUBKTNV-1" source="GfsLyNKy6Gx6KUHtyKdF-7" target="GfsLyNKy6Gx6KUHtyKdF-9" edge="1">
          <mxGeometry width="50" height="50" relative="1" as="geometry">
            <mxPoint x="186.25" y="440" as="sourcePoint" />
            <mxPoint x="186.25" y="510" as="targetPoint" />
          </mxGeometry>
        </mxCell>
        <mxCell id="GfsLyNKy6Gx6KUHtyKdF-50" value="No" style="edgeLabel;html=1;align=center;verticalAlign=middle;resizable=0;points=[];" parent="GfsLyNKy6Gx6KUHtyKdF-49" vertex="1" connectable="0">
          <mxGeometry x="-0.2431" relative="1" as="geometry">
            <mxPoint as="offset" />
          </mxGeometry>
        </mxCell>
        <mxCell id="GfsLyNKy6Gx6KUHtyKdF-66" value="" style="endArrow=classic;html=1;rounded=0;exitX=1;exitY=0.5;exitDx=0;exitDy=0;" parent="WIyWlLk6GJQsqaUBKTNV-1" source="ncatF9BN9iEVX4gBYSPz-16" edge="1">
          <mxGeometry width="50" height="50" relative="1" as="geometry">
            <mxPoint x="13.74000000000001" y="489" as="sourcePoint" />
            <mxPoint x="266" y="840" as="targetPoint" />
            <Array as="points">
              <mxPoint x="376.25" y="599" />
              <mxPoint x="374" y="840" />
            </Array>
          </mxGeometry>
        </mxCell>
        <mxCell id="ncatF9BN9iEVX4gBYSPz-37" value="No" style="edgeLabel;html=1;align=center;verticalAlign=middle;resizable=0;points=[];" parent="GfsLyNKy6Gx6KUHtyKdF-66" vertex="1" connectable="0">
          <mxGeometry x="-0.9195" relative="1" as="geometry">
            <mxPoint y="-8" as="offset" />
          </mxGeometry>
        </mxCell>
        <mxCell id="GfsLyNKy6Gx6KUHtyKdF-73" value="" style="endArrow=classic;html=1;rounded=0;exitX=0.5;exitY=1;exitDx=0;exitDy=0;entryX=0.5;entryY=0;entryDx=0;entryDy=0;" parent="WIyWlLk6GJQsqaUBKTNV-1" source="GfsLyNKy6Gx6KUHtyKdF-29" target="GfsLyNKy6Gx6KUHtyKdF-80" edge="1">
          <mxGeometry width="50" height="50" relative="1" as="geometry">
            <mxPoint x="-93.77" y="659" as="sourcePoint" />
            <mxPoint x="288.74" y="759" as="targetPoint" />
          </mxGeometry>
        </mxCell>
        <mxCell id="GfsLyNKy6Gx6KUHtyKdF-74" value="Yes" style="edgeLabel;html=1;align=center;verticalAlign=middle;resizable=0;points=[];" parent="GfsLyNKy6Gx6KUHtyKdF-73" vertex="1" connectable="0">
          <mxGeometry x="-0.2431" relative="1" as="geometry">
            <mxPoint as="offset" />
          </mxGeometry>
        </mxCell>
        <mxCell id="GfsLyNKy6Gx6KUHtyKdF-80" value="去掉临时表达式最后的&lt;br&gt;逗号前两边的双引号，&lt;br&gt;再把连续的两个双引号&lt;br&gt;替换成一个双引号" style="rounded=1;whiteSpace=wrap;html=1;absoluteArcSize=1;arcSize=14;strokeWidth=2;fillColor=#fff2cc;strokeColor=#d6b656;" parent="WIyWlLk6GJQsqaUBKTNV-1" vertex="1">
          <mxGeometry x="194.69" y="750" width="143.12" height="70" as="geometry" />
        </mxCell>
        <mxCell id="GfsLyNKy6Gx6KUHtyKdF-82" value="" style="endArrow=classic;html=1;rounded=0;exitX=0.5;exitY=1;exitDx=0;exitDy=0;entryX=0.5;entryY=0;entryDx=0;entryDy=0;" parent="WIyWlLk6GJQsqaUBKTNV-1" source="GfsLyNKy6Gx6KUHtyKdF-80" target="ncatF9BN9iEVX4gBYSPz-29" edge="1">
          <mxGeometry width="50" height="50" relative="1" as="geometry">
            <mxPoint x="266.8799999999999" y="860" as="sourcePoint" />
            <mxPoint x="266.8799999999999" y="910" as="targetPoint" />
          </mxGeometry>
        </mxCell>
        <mxCell id="ncatF9BN9iEVX4gBYSPz-0" value="Start" style="strokeWidth=2;html=1;shape=mxgraph.flowchart.start_1;whiteSpace=wrap;fillColor=#f8cecc;strokeColor=#b85450;" parent="WIyWlLk6GJQsqaUBKTNV-1" vertex="1">
          <mxGeometry x="216.89000000000001" y="20" width="100" height="60" as="geometry" />
        </mxCell>
        <mxCell id="ncatF9BN9iEVX4gBYSPz-1" value="" style="endArrow=classic;html=1;rounded=0;exitX=0.5;exitY=1;exitDx=0;exitDy=0;exitPerimeter=0;entryX=0.5;entryY=0;entryDx=0;entryDy=0;" parent="WIyWlLk6GJQsqaUBKTNV-1" source="ncatF9BN9iEVX4gBYSPz-0" target="ncatF9BN9iEVX4gBYSPz-2" edge="1">
          <mxGeometry width="50" height="50" relative="1" as="geometry">
            <mxPoint x="372.49" y="140" as="sourcePoint" />
            <mxPoint x="422.49" y="90" as="targetPoint" />
          </mxGeometry>
        </mxCell>
        <mxCell id="ncatF9BN9iEVX4gBYSPz-2" value="从CSV文件内容读取第一个逗号&lt;br&gt;至第一个回车符之间的内容，并&lt;br&gt;在最后加上一个逗号。" style="rounded=1;whiteSpace=wrap;html=1;absoluteArcSize=1;arcSize=14;strokeWidth=2;fillColor=#fff2cc;strokeColor=#d6b656;" parent="WIyWlLk6GJQsqaUBKTNV-1" vertex="1">
          <mxGeometry x="170.63" y="111" width="192.51" height="49" as="geometry" />
        </mxCell>
        <mxCell id="ncatF9BN9iEVX4gBYSPz-5" value="还有内容吗？" style="rhombus;whiteSpace=wrap;html=1;shadow=0;fontFamily=Helvetica;fontSize=12;align=center;strokeWidth=1;spacing=6;spacingTop=-4;fillColor=#ffe6cc;strokeColor=#d79b00;" parent="WIyWlLk6GJQsqaUBKTNV-1" vertex="1">
          <mxGeometry x="216.25" y="200" width="100" height="60" as="geometry" />
        </mxCell>
        <mxCell id="ncatF9BN9iEVX4gBYSPz-6" value="读入一个字符并&lt;br&gt;追加到临时表达&lt;br&gt;式后面" style="rounded=1;whiteSpace=wrap;html=1;absoluteArcSize=1;arcSize=14;strokeWidth=2;fillColor=#fff2cc;strokeColor=#d6b656;" parent="WIyWlLk6GJQsqaUBKTNV-1" vertex="1">
          <mxGeometry x="216.25" y="299" width="100" height="51" as="geometry" />
        </mxCell>
        <mxCell id="ncatF9BN9iEVX4gBYSPz-7" value="" style="endArrow=classic;html=1;rounded=0;exitX=0.5;exitY=1;exitDx=0;exitDy=0;entryX=0.5;entryY=0;entryDx=0;entryDy=0;" parent="WIyWlLk6GJQsqaUBKTNV-1" source="ncatF9BN9iEVX4gBYSPz-5" target="ncatF9BN9iEVX4gBYSPz-6" edge="1">
          <mxGeometry width="50" height="50" relative="1" as="geometry">
            <mxPoint x="328.74" y="369" as="sourcePoint" />
            <mxPoint x="328.74" y="409" as="targetPoint" />
          </mxGeometry>
        </mxCell>
        <mxCell id="ncatF9BN9iEVX4gBYSPz-8" value="Yes" style="edgeLabel;html=1;align=center;verticalAlign=middle;resizable=0;points=[];" parent="ncatF9BN9iEVX4gBYSPz-7" vertex="1" connectable="0">
          <mxGeometry x="-0.2431" relative="1" as="geometry">
            <mxPoint as="offset" />
          </mxGeometry>
        </mxCell>
        <mxCell id="ncatF9BN9iEVX4gBYSPz-9" value="" style="endArrow=classic;html=1;rounded=0;exitX=0.5;exitY=1;exitDx=0;exitDy=0;entryX=0.5;entryY=0;entryDx=0;entryDy=0;" parent="WIyWlLk6GJQsqaUBKTNV-1" source="ncatF9BN9iEVX4gBYSPz-6" target="GfsLyNKy6Gx6KUHtyKdF-7" edge="1">
          <mxGeometry width="50" height="50" relative="1" as="geometry">
            <mxPoint x="338.74" y="439" as="sourcePoint" />
            <mxPoint x="268.74" y="379" as="targetPoint" />
          </mxGeometry>
        </mxCell>
        <mxCell id="ncatF9BN9iEVX4gBYSPz-10" value="" style="endArrow=classic;html=1;rounded=0;exitX=0.5;exitY=1;exitDx=0;exitDy=0;entryX=0.5;entryY=0;entryDx=0;entryDy=0;" parent="WIyWlLk6GJQsqaUBKTNV-1" source="ncatF9BN9iEVX4gBYSPz-2" target="ncatF9BN9iEVX4gBYSPz-5" edge="1">
          <mxGeometry width="50" height="50" relative="1" as="geometry">
            <mxPoint x="264.3700000000001" y="210" as="sourcePoint" />
            <mxPoint x="273.74" y="279" as="targetPoint" />
          </mxGeometry>
        </mxCell>
        <mxCell id="ncatF9BN9iEVX4gBYSPz-13" value="" style="endArrow=classic;html=1;rounded=0;exitX=0;exitY=0.5;exitDx=0;exitDy=0;" parent="WIyWlLk6GJQsqaUBKTNV-1" source="GfsLyNKy6Gx6KUHtyKdF-12" edge="1">
          <mxGeometry width="50" height="50" relative="1" as="geometry">
            <mxPoint x="446.25" y="240" as="sourcePoint" />
            <mxPoint x="52.51" y="410" as="targetPoint" />
            <Array as="points" />
          </mxGeometry>
        </mxCell>
        <mxCell id="ncatF9BN9iEVX4gBYSPz-14" value="" style="endArrow=classic;html=1;rounded=0;exitX=0;exitY=0.5;exitDx=0;exitDy=0;" parent="WIyWlLk6GJQsqaUBKTNV-1" source="ncatF9BN9iEVX4gBYSPz-29" edge="1">
          <mxGeometry width="50" height="50" relative="1" as="geometry">
            <mxPoint x="195.01999999999998" y="955" as="sourcePoint" />
            <mxPoint x="266.25" y="180" as="targetPoint" />
            <Array as="points">
              <mxPoint x="50" y="900" />
              <mxPoint x="53.76" y="180" />
            </Array>
          </mxGeometry>
        </mxCell>
        <mxCell id="ncatF9BN9iEVX4gBYSPz-16" value="双引号数量&lt;br&gt;大于零吗？" style="rhombus;whiteSpace=wrap;html=1;shadow=0;fontFamily=Helvetica;fontSize=12;align=center;strokeWidth=1;spacing=6;spacingTop=-4;fillColor=#ffe6cc;strokeColor=#d79b00;" parent="WIyWlLk6GJQsqaUBKTNV-1" vertex="1">
          <mxGeometry x="216.25" y="569" width="100" height="60" as="geometry" />
        </mxCell>
        <mxCell id="ncatF9BN9iEVX4gBYSPz-17" value="" style="endArrow=classic;html=1;rounded=0;exitX=0.5;exitY=1;exitDx=0;exitDy=0;entryX=0.5;entryY=0;entryDx=0;entryDy=0;" parent="WIyWlLk6GJQsqaUBKTNV-1" source="GfsLyNKy6Gx6KUHtyKdF-9" target="ncatF9BN9iEVX4gBYSPz-16" edge="1">
          <mxGeometry width="50" height="50" relative="1" as="geometry">
            <mxPoint x="266.25" y="570" as="sourcePoint" />
            <mxPoint x="266.25" y="610" as="targetPoint" />
          </mxGeometry>
        </mxCell>
        <mxCell id="ncatF9BN9iEVX4gBYSPz-18" value="Yes" style="edgeLabel;html=1;align=center;verticalAlign=middle;resizable=0;points=[];" parent="ncatF9BN9iEVX4gBYSPz-17" vertex="1" connectable="0">
          <mxGeometry x="-0.2431" relative="1" as="geometry">
            <mxPoint as="offset" />
          </mxGeometry>
        </mxCell>
        <mxCell id="ncatF9BN9iEVX4gBYSPz-19" value="" style="endArrow=classic;html=1;rounded=0;exitX=0.5;exitY=1;exitDx=0;exitDy=0;entryX=0.5;entryY=0;entryDx=0;entryDy=0;" parent="WIyWlLk6GJQsqaUBKTNV-1" source="ncatF9BN9iEVX4gBYSPz-16" target="GfsLyNKy6Gx6KUHtyKdF-29" edge="1">
          <mxGeometry width="50" height="50" relative="1" as="geometry">
            <mxPoint x="225.25" y="539" as="sourcePoint" />
            <mxPoint x="225.25" y="579" as="targetPoint" />
          </mxGeometry>
        </mxCell>
        <mxCell id="ncatF9BN9iEVX4gBYSPz-20" value="Yes" style="edgeLabel;html=1;align=center;verticalAlign=middle;resizable=0;points=[];" parent="ncatF9BN9iEVX4gBYSPz-19" vertex="1" connectable="0">
          <mxGeometry x="-0.2431" relative="1" as="geometry">
            <mxPoint as="offset" />
          </mxGeometry>
        </mxCell>
        <mxCell id="ncatF9BN9iEVX4gBYSPz-23" value="End" style="strokeWidth=2;html=1;shape=mxgraph.flowchart.start_1;whiteSpace=wrap;fillColor=#f8cecc;strokeColor=#b85450;" parent="WIyWlLk6GJQsqaUBKTNV-1" vertex="1">
          <mxGeometry x="376.25" y="294.5" width="100" height="60" as="geometry" />
        </mxCell>
        <mxCell id="ncatF9BN9iEVX4gBYSPz-24" value="" style="endArrow=classic;html=1;rounded=0;exitX=1;exitY=0.5;exitDx=0;exitDy=0;entryX=0.5;entryY=0;entryDx=0;entryDy=0;entryPerimeter=0;" parent="WIyWlLk6GJQsqaUBKTNV-1" source="ncatF9BN9iEVX4gBYSPz-5" target="ncatF9BN9iEVX4gBYSPz-23" edge="1">
          <mxGeometry width="50" height="50" relative="1" as="geometry">
            <mxPoint x="376.25" y="230" as="sourcePoint" />
            <mxPoint x="466.25" y="230" as="targetPoint" />
            <Array as="points">
              <mxPoint x="426.25" y="230" />
            </Array>
          </mxGeometry>
        </mxCell>
        <mxCell id="ncatF9BN9iEVX4gBYSPz-25" value="No" style="edgeLabel;html=1;align=center;verticalAlign=middle;resizable=0;points=[];" parent="ncatF9BN9iEVX4gBYSPz-24" vertex="1" connectable="0">
          <mxGeometry x="-0.7615" y="1" relative="1" as="geometry">
            <mxPoint y="-8" as="offset" />
          </mxGeometry>
        </mxCell>
        <mxCell id="ncatF9BN9iEVX4gBYSPz-29" value="从临时表达式中去掉&lt;br&gt;最后的逗号，写入正&lt;br&gt;则表达式数组，清空&lt;br&gt;临时表达式，双引号&lt;br&gt;计数置零" style="rounded=1;whiteSpace=wrap;html=1;absoluteArcSize=1;arcSize=14;strokeWidth=2;fillColor=#fff2cc;strokeColor=#d6b656;" parent="WIyWlLk6GJQsqaUBKTNV-1" vertex="1">
          <mxGeometry x="195.65" y="860" width="143.12" height="80" as="geometry" />
        </mxCell>
        <mxCell id="ncatF9BN9iEVX4gBYSPz-38" value="" style="endArrow=classic;html=1;rounded=0;exitX=0;exitY=0.5;exitDx=0;exitDy=0;" parent="WIyWlLk6GJQsqaUBKTNV-1" source="GfsLyNKy6Gx6KUHtyKdF-9" edge="1">
          <mxGeometry width="50" height="50" relative="1" as="geometry">
            <mxPoint x="120.00000000000001" y="524" as="sourcePoint" />
            <mxPoint x="52.51" y="504" as="targetPoint" />
          </mxGeometry>
        </mxCell>
        <mxCell id="ncatF9BN9iEVX4gBYSPz-39" value="No" style="edgeLabel;html=1;align=center;verticalAlign=middle;resizable=0;points=[];" parent="ncatF9BN9iEVX4gBYSPz-38" vertex="1" connectable="0">
          <mxGeometry x="-0.6768" y="-1" relative="1" as="geometry">
            <mxPoint x="2" y="-7" as="offset" />
          </mxGeometry>
        </mxCell>
        <mxCell id="ncatF9BN9iEVX4gBYSPz-40" value="" style="endArrow=classic;html=1;rounded=0;exitX=0;exitY=0.5;exitDx=0;exitDy=0;" parent="WIyWlLk6GJQsqaUBKTNV-1" source="GfsLyNKy6Gx6KUHtyKdF-29" edge="1">
          <mxGeometry width="50" height="50" relative="1" as="geometry">
            <mxPoint x="216.88" y="660" as="sourcePoint" />
            <mxPoint x="52.51" y="690" as="targetPoint" />
          </mxGeometry>
        </mxCell>
        <mxCell id="ncatF9BN9iEVX4gBYSPz-41" value="No" style="edgeLabel;html=1;align=center;verticalAlign=middle;resizable=0;points=[];" parent="ncatF9BN9iEVX4gBYSPz-40" vertex="1" connectable="0">
          <mxGeometry x="-0.6768" y="-1" relative="1" as="geometry">
            <mxPoint x="2" y="-6" as="offset" />
          </mxGeometry>
        </mxCell>
        <mxCell id="ncatF9BN9iEVX4gBYSPz-42" value="" style="endArrow=classic;html=1;rounded=0;exitX=0;exitY=0.5;exitDx=0;exitDy=0;entryX=1;entryY=0.5;entryDx=0;entryDy=0;" parent="WIyWlLk6GJQsqaUBKTNV-1" source="GfsLyNKy6Gx6KUHtyKdF-7" target="GfsLyNKy6Gx6KUHtyKdF-12" edge="1">
          <mxGeometry width="50" height="50" relative="1" as="geometry">
            <mxPoint x="226.51" y="460" as="sourcePoint" />
            <mxPoint x="62.51" y="460" as="targetPoint" />
          </mxGeometry>
        </mxCell>
        <mxCell id="ncatF9BN9iEVX4gBYSPz-43" value="Yes" style="edgeLabel;html=1;align=center;verticalAlign=middle;resizable=0;points=[];" parent="ncatF9BN9iEVX4gBYSPz-42" vertex="1" connectable="0">
          <mxGeometry x="-0.6768" y="-1" relative="1" as="geometry">
            <mxPoint x="-14" y="-7" as="offset" />
          </mxGeometry>
        </mxCell>
      </root>
    </mxGraphModel>
  </diagram>
</mxfile>
